<svg width="200" height="530" xmlns="http://www.w3.org/2000/svg"><style>rect, line, path { stroke: #000; stroke-width: 2; } .red { fill: hsl(0,100%,80%); } .yellow { fill: hsl(60,100%,80%); } .green { fill: hsl(120,100%,80%); } .teal { fill: hsl(180,100%,80%); } .blue { fill: hsl(240,100%,80%); } .purple { fill: hsl(300,100%,80%); } .l-red { stroke: hsl(0,75%,40%); } .l-yellow { stroke: hsl(60,75%,40%); } .l-green { stroke: hsl(120,75%,40%); } .l-teal { stroke: hsl(180,75%,40%); } .l-blue { stroke: hsl(240,75%,40%); } .l-purple { stroke: hsl(300,75%,40%); } text { text-anchor: middle; font-family: Helvetica, Arial, sans-serif; font-size: 22px; fill: #000; } ellipse { stroke-width: 1; stroke: #000; }</style><path class="l-blue" d="M80 40v30"/><path class="l-green" d="M100 40l40 30"/><path class="l-yellow" d="M120 40v30"/><path class="l-teal" d="M140 40l-40 30"/><path class="l-red" d="M160 40v30"/><path class="blue" d="M70 10h20v30H70z"/><path class="green" d="M90 10h20v30H90z"/><path class="yellow" d="M110 10h20v30h-20z"/><path class="teal" d="M130 10h20v30h-20z"/><path class="red" d="M150 10h20v30h-20z"/><text y="23" x="10" transform="translate(70 10)">9</text><text y="23" x="30" transform="translate(70 10)">6</text><text y="23" x="50" transform="translate(70 10)">2</text><text y="23" x="70" transform="translate(70 10)">9</text><text y="23" x="90" transform="translate(70 10)">1</text><g><path class="l-blue" d="M80 100l100 30"/><path class="l-teal" d="M100 100v30"/><path class="l-yellow" d="M120 100v30"/><path class="l-green" d="M140 100v30"/><path class="l-red" d="M160 100l-80 30"/><path class="blue" d="M70 70h20v30H70z"/><path class="teal" d="M90 70h20v30H90z"/><path class="yellow" d="M110 70h20v30h-20z"/><path class="green" d="M130 70h20v30h-20z"/><path class="red" d="M150 70h20v30h-20z"/><text y="23" x="10" transform="translate(70 70)">9</text><text y="23" x="30" transform="translate(70 70)">9</text><text y="23" x="50" transform="translate(70 70)">2</text><text y="23" x="70" transform="translate(70 70)">6</text><text y="23" x="90" transform="translate(70 70)">1</text><g transform="translate(35 73)"><path d="M0 0l-12 12"/><path d="M0 0l12 12"/><path d="M-12 12l-12 12"/><path d="M-12 12L0 24"/><ellipse ry="6" rx="6" class="blue"/><ellipse ry="6" rx="6" cy="12" cx="-12" class="teal"/><ellipse ry="6" rx="6" cy="12" cx="12" class="yellow"/><ellipse ry="6" rx="6" cy="24" cx="-24" class="green"/><ellipse ry="6" rx="6" cy="24" class="red"/></g></g><g><path class="l-red" d="M80 160l60 30"/><path class="l-teal" d="M100 160l-20 30"/><path class="l-yellow" d="M120 160v30"/><path class="l-green" d="M140 160l-40 30"/><path class="l-blue" d="M180 160v30"/><path class="red" d="M70 130h20v30H70z"/><path class="teal" d="M90 130h20v30H90z"/><path class="yellow" d="M110 130h20v30h-20z"/><path class="green" d="M130 130h20v30h-20z"/><path class="blue" d="M170 130h20v30h-20z"/><text y="23" x="10" transform="translate(70 130)">1</text><text y="23" x="30" transform="translate(70 130)">9</text><text y="23" x="50" transform="translate(70 130)">2</text><text y="23" x="70" transform="translate(70 130)">6</text><text y="23" x="110" transform="translate(70 130)">9</text></g><g><path class="l-teal" d="M80 220l80 30"/><path class="l-green" d="M100 220v30"/><path class="l-yellow" d="M120 220v30"/><path class="l-red" d="M140 220l-60 30"/><path class="l-blue" d="M180 220v30"/><path class="teal" d="M70 190h20v30H70z"/><path class="green" d="M90 190h20v30H90z"/><path class="yellow" d="M110 190h20v30h-20z"/><path class="red" d="M130 190h20v30h-20z"/><path class="blue" d="M170 190h20v30h-20z"/><text y="23" x="10" transform="translate(70 190)">9</text><text y="23" x="30" transform="translate(70 190)">6</text><text y="23" x="50" transform="translate(70 190)">2</text><text y="23" x="70" transform="translate(70 190)">1</text><text y="23" x="110" transform="translate(70 190)">9</text><g transform="translate(35 193)"><path d="M0 0l-12 12"/><path d="M0 0l12 12"/><path d="M-12 12l-12 12"/><ellipse ry="6" rx="6" class="teal"/><ellipse ry="6" rx="6" cy="12" cx="-12" class="green"/><ellipse ry="6" rx="6" cy="12" cx="12" class="yellow"/><ellipse ry="6" rx="6" cy="24" cx="-24" class="red"/></g></g><g><path class="l-red" d="M80 280l20 30"/><path class="l-green" d="M100 280l-20 30"/><path class="l-yellow" d="M120 280v30"/><path class="l-teal" d="M160 280v30"/><path class="l-blue" d="M180 280v30"/><path class="red" d="M70 250h20v30H70z"/><path class="green" d="M90 250h20v30H90z"/><path class="yellow" d="M110 250h20v30h-20z"/><path class="teal" d="M150 250h20v30h-20z"/><path class="blue" d="M170 250h20v30h-20z"/><text y="23" x="10" transform="translate(70 250)">1</text><text y="23" x="30" transform="translate(70 250)">6</text><text y="23" x="50" transform="translate(70 250)">2</text><text y="23" x="90" transform="translate(70 250)">9</text><text y="23" x="110" transform="translate(70 250)">9</text></g><g><path class="l-green" d="M80 340l60 30"/><path class="l-red" d="M100 340v30"/><path class="l-yellow" d="M120 340l-40 30"/><path class="l-teal" d="M160 340v30"/><path class="l-blue" d="M180 340v30"/><path class="green" d="M70 310h20v30H70z"/><path class="red" d="M90 310h20v30H90z"/><path class="yellow" d="M110 310h20v30h-20z"/><path class="teal" d="M150 310h20v30h-20z"/><path class="blue" d="M170 310h20v30h-20z"/><text y="23" x="10" transform="translate(70 310)">6</text><text y="23" x="30" transform="translate(70 310)">1</text><text y="23" x="50" transform="translate(70 310)">2</text><text y="23" x="90" transform="translate(70 310)">9</text><text y="23" x="110" transform="translate(70 310)">9</text><g transform="translate(35 319)"><path d="M0 0l-12 12"/><path d="M0 0l12 12"/><ellipse ry="6" rx="6" class="green"/><ellipse ry="6" rx="6" cy="12" cx="-12" class="red"/><ellipse ry="6" rx="6" cy="12" cx="12" class="yellow"/></g></g><g><path class="l-yellow" d="M80 400v30"/><path class="l-red" d="M100 400v30"/><path class="l-green" d="M140 400v30"/><path class="l-teal" d="M160 400v30"/><path class="l-blue" d="M180 400v30"/><path class="yellow" d="M70 370h20v30H70z"/><path class="red" d="M90 370h20v30H90z"/><path class="green" d="M130 370h20v30h-20z"/><path class="teal" d="M150 370h20v30h-20z"/><path class="blue" d="M170 370h20v30h-20z"/><text y="23" x="10" transform="translate(70 370)">2</text><text y="23" x="30" transform="translate(70 370)">1</text><text y="23" x="70" transform="translate(70 370)">6</text><text y="23" x="90" transform="translate(70 370)">9</text><text y="23" x="110" transform="translate(70 370)">9</text></g><g><path class="l-yellow" d="M80 460l40 30"/><path class="l-red" d="M100 460v30"/><path class="l-green" d="M140 460v30"/><path class="l-teal" d="M160 460v30"/><path class="l-blue" d="M180 460v30"/><path class="yellow" d="M70 430h20v30H70z"/><path class="red" d="M90 430h20v30H90z"/><path class="green" d="M130 430h20v30h-20z"/><path class="teal" d="M150 430h20v30h-20z"/><path class="blue" d="M170 430h20v30h-20z"/><text y="23" x="10" transform="translate(70 430)">2</text><text y="23" x="30" transform="translate(70 430)">1</text><text y="23" x="70" transform="translate(70 430)">6</text><text y="23" x="90" transform="translate(70 430)">9</text><text y="23" x="110" transform="translate(70 430)">9</text><g transform="translate(35 439)"><path d="M0 0l-12 12"/><ellipse ry="6" rx="6" class="yellow"/><ellipse ry="6" rx="6" cy="12" cx="-12" class="red"/></g></g><g><path class="red" d="M90 490h20v30H90z"/><path class="yellow" d="M110 490h20v30h-20z"/><path class="green" d="M130 490h20v30h-20z"/><path class="teal" d="M150 490h20v30h-20z"/><path class="blue" d="M170 490h20v30h-20z"/><text y="23" x="30" transform="translate(70 490)">1</text><text y="23" x="50" transform="translate(70 490)">2</text><text y="23" x="70" transform="translate(70 490)">6</text><text y="23" x="90" transform="translate(70 490)">9</text><text y="23" x="110" transform="translate(70 490)">9</text></g></svg>